<?xml version="1.0" encoding="UTF-8" standalone="no"?>
<svg width="330px" height="390px" viewBox="0 0 330 390" version="1.1" xmlns="http://www.w3.org/2000/svg" xmlns:xlink="http://www.w3.org/1999/xlink" xmlns:sketch="http://www.bohemiancoding.com/sketch/ns">
    <!-- Generator: Sketch 3.2 (9961) - http://www.bohemiancoding.com/sketch -->
    <title>logo-path-to-unleash</title>
    <desc>Created with Sketch.</desc>
    <defs></defs>
    <g id="Page-1" stroke="none" stroke-width="1" fill="none" fill-rule="evenodd" sketch:type="MSPage">
        <g id="logo-path-to-unleash" sketch:type="MSArtboardGroup" fill="#000000">
            <path d="M161.175515,321.782223 C123.448876,304.295294 72.3887853,265.192745 69.0232153,249.984246 C67.3814963,242.565568 66.4207338,216.989598 66.1113251,180.086477 C65.9470639,160.49508 66,110 66,110 L161.178648,68.2752181 L161.178648,68.2752181 L164,120 C164,120 164,121 165,121 C166,121 166,120 166,120 L168.821352,68.2752167 L264.000002,110 C264.000002,110 264.052936,160.49508 263.888675,180.086477 C263.579266,216.989598 262.618504,242.565568 260.976785,249.984246 C257.613966,265.180314 205.701186,304.231387 168.822144,321.7393 L166,270 C166,270 166,269 165,269 C164,269 164,270 164,270 L161.175515,321.782223 Z M266.835055,251.280654 C262.439297,271.144414 200.898688,314.550409 165,330 C129.101312,314.550409 67.5607031,271.144414 63.1649454,251.280654 C58.7691876,231.416894 60.2344405,106.348774 60.2344405,106.348774 L165,60 L269.765559,106.348774 C269.765559,106.348774 271.230812,231.416894 266.835055,251.280654 Z M195.480195,190.95018 L137.062861,134 L109.614183,160.966871 L140.359099,191.171447 L103,230.202282 L129.674014,256 L195.480195,190.95018 Z M171.760837,222.021021 L198.551804,248.342276 L226,221.376062 L199.208365,195.055027 L171.760837,222.021021 L171.760837,222.021021 Z M171.984168,160.100533 L199.433626,187.067404 L226,160.966871 L198.551173,134 L171.984168,160.100533 Z" id="Path" sketch:type="MSShapeGroup"></path>
        </g>
    </g>
</svg>